<svg xmlns="http://www.w3.org/2000/svg" width="512" height="512" viewBox="0 0 1000 1000" role="img"><defs><clipPath id="logo-clip"><rect width="1000" height="1000" rx="225" ry="225"/></clipPath><linearGradient id="logo-bg" x1="0" y1="0" x2="0.82" y2="1"><stop offset="0" stop-color="#f05653"/><stop offset="1" stop-color="#a90016"/></linearGradient><linearGradient id="logo-fadeG" x1="0" y1="0" x2="0.5" y2="0.87"><stop offset="0.08" stop-color="#fff"/><stop offset="0.58" stop-color="#fff" stop-opacity="0.72"/><stop offset="0.92" stop-color="#fff" stop-opacity="0.3"/></linearGradient><mask id="logo-fade"><rect x="-200" y="-200" width="1600" height="1600" fill="url(#logo-fadeG)"/></mask></defs><g clip-path="url(#logo-clip)"><rect width="1000" height="1000" fill="url(#logo-bg)"/><svg x="-140" y="-120" width="1200" height="1200" viewBox="0 0 24 24" fill="#f3f5fe" opacity="0.75" mask="url(#logo-fade)" style="mix-blend-mode:overlay" overflow="visible"><path d="M13.85 0a4.16 4.16 0 0 0-2.95 1.217L1.456 10.66a.835.835 0 0 0 0 1.18.835.835 0 0 0 1.18 0l9.442-9.442a2.49 2.49 0 0 1 3.541 0 2.49 2.49 0 0 1 0 3.541L8.59 12.97l-.1.1a.835.835 0 0 0 0 1.18.835.835 0 0 0 1.18 0l.1-.098 7.03-7.034a2.49 2.49 0 0 1 3.542 0l.049.05a2.49 2.49 0 0 1 0 3.54l-8.54 8.54a1.96 1.96 0 0 0 0 2.755l1.753 1.753a.835.835 0 0 0 1.18 0 .835.835 0 0 0 0-1.18l-1.753-1.753a.266.266 0 0 1 0-.394l8.54-8.54a4.185 4.185 0 0 0 0-5.9l-.05-.05a4.16 4.16 0 0 0-2.95-1.218c-.2 0-.401.02-.6.048a4.17 4.17 0 0 0-1.17-3.552A4.16 4.16 0 0 0 13.85 0m0 3.333a.84.84 0 0 0-.59.245L6.275 10.56a4.186 4.186 0 0 0 0 5.902 4.186 4.186 0 0 0 5.902 0L19.16 9.48a.835.835 0 0 0 0-1.18.835.835 0 0 0-1.18 0l-6.985 6.984a2.49 2.49 0 0 1-3.54 0 2.49 2.49 0 0 1 0-3.54l6.983-6.985a.835.835 0 0 0 0-1.18.84.84 0 0 0-.59-.245"/></svg><svg x="249.5" y="249.5" width="501.0" height="501.0" viewBox="0 0 1800 1694" fill="#f3f5fe" stroke="none" overflow="visible"><g fill="#f3f5fe" color="#f3f5fe"><g transform="translate(0,1694) scale(.1,-.1)"> <path d="M8955 16933 c-205 -4 -601 -22 -820 -39 -2239 -165 -4042 -804 -5395 -1913 -404 -331 -800 -745 -1117 -1166 -917 -1219 -1449 -2766 -1588 -4615 -46 -623 -44 -1344 5 -1920 122 -1409 511 -2648 1158 -3695 190 -307 431 -632 676 -910 115 -131 412 -430 551 -554 755 -677 1654 -1188 2717 -1545 971 -327 2047 -513 3274 -567 362 -16 1445 -7 1744 15 704 51 1288 130 1880 257 2455 525 4212 1705 5060 3399 194 387 351 831 444 1260 20 91 39 175 41 188 l5 22 -1853 0 -1854 0 -28 -77 c-48 -133 -123 -302 -199 -448 -330 -638 -842 -1162 -1511 -1546 -260 -149 -621 -306 -940 -409 -1004 -323 -2252 -386 -3338 -169 -714 143 -1383 414 -1952 792 -126 84 -310 223 -445 336 -140 118 -406 381 -522 516 -646 757 -1054 1676 -1223 2760 -25 162 -62 500 -66 610 l-3 60 7172 3 7172 2 -2 1303 -3 1302 -32 180 c-103 574 -201 973 -353 1426 -276 825 -657 1545 -1154 2184 -537 690 -1209 1275 -1986 1729 -190 111 -572 306 -773 395 -929 411 -1988 674 -3137 781 -532 49 -1007 65 -1605 53z m605 -2423 c1129 -65 2092 -358 2858 -872 494 -331 915 -774 1212 -1273 393 -662 610 -1429 666 -2352 l7 -113 -5292 0 -5291 0 0 23 c0 12 12 101 26 197 113 778 339 1457 684 2050 557 958 1440 1655 2570 2030 501 166 1101 276 1690 309 212 12 668 12 870 1z" /> </g></g></svg></g></svg>